# xmcd
#
# Track frame offsets:
#	150
#	8028
#	27284
#	42813
#	56851
#	84396
#	101441
#	122869
#	143673
#	163736
#	181016
#	199579
#	209179
#	228636
#	247579
#	260877
#	276094
#	296103
#	310982
#	328393
#
# Disc length: 4640 seconds
#
# Revision: 1
# Processed by: cddbd v1.5.1PL0 Copyright (c) Steve Scherf et al.
# Submitted via: audiograbber 1.83.01
#
DISCID=29121e14
DTITLE=Alicia Keys - The Diary of Alicia Keys - CD1
DYEAR=2003
DGENRE=R&B
TTITLE0=Hearem's Nocturne
TTITLE1=Karma
TTITLE2=Heartburn
TTITLE3=If I Was Your Woman/Walk On By
TTITLE4=You Don't Know My Name
TTITLE5=If I Ain't Got You
TTITLE6=Diary (feat. Tony!Toni!Tone!)
TTITLE7=Dragon Days
TTITLE8=Wake Up
TTITLE9=So Simple
TTITLE10=When You Really Love Someone
TTITLE11=Feeling U Feeling me (interlude)
TTITLE12=Slow Down
TTITLE13=Samsonite Man
TTITLE14=Nobody No Really
TTITLE15=Girlfriend (Ktucialkeys Sista Girl mix)
TTITLE16=Fallin (mix)
TTITLE17=A Woman's Worth (remix)
TTITLE18=Butterflyz (Roger's release mix)
TTITLE19=How Come You Don't Can Me (Neptunes mix)
EXTD=This is the HDCD double cd
EXTT0=
EXTT1=
EXTT2=
EXTT3=
EXTT4=
EXTT5=
EXTT6=
EXTT7=
EXTT8=
EXTT9=
EXTT10=
EXTT11=
EXTT12=
EXTT13=
EXTT14=
EXTT15=
EXTT16=
EXTT17=
EXTT18=
EXTT19=
PLAYORDER=
